<?xml version="1.0" standalone="no"?>
<!DOCTYPE svg PUBLIC "-//W3C//DTD SVG 20010904//EN"
 "http://www.w3.org/TR/2001/REC-SVG-20010904/DTD/svg10.dtd">
<svg version="1.0" xmlns="http://www.w3.org/2000/svg"
 width="343.000000pt" height="257.000000pt" viewBox="0 0 343.000000 257.000000"
 preserveAspectRatio="xMidYMid meet" >

<g transform="translate(0.000000,257.000000) scale(0.100000,-0.100000)"
fill="#30475e" stroke="none">
<path d="M2614 2560 c-34 -13 -54 -50 -54 -97 0 -24 -3 -43 -7 -43 -5 1 -21
21 -37 46 -33 53 -80 86 -116 82 -18 -2 -31 -15 -48 -48 -27 -52 -25 -81 12
-173 35 -89 83 -306 106 -485 6 -46 16 -96 21 -110 27 -71 90 -94 128 -46 39
49 49 173 24 288 -4 21 -3 27 6 22 20 -12 59 -100 74 -165 18 -78 38 -101 89
-101 30 0 46 7 69 29 40 41 38 85 -10 235 -29 90 -42 153 -51 246 -19 192 -27
238 -51 271 -35 49 -102 70 -155 49z"/>
<path d="M384 2544 c-61 -30 -76 -56 -85 -146 -7 -72 0 -196 16 -290 2 -16 1
-28 -4 -28 -9 0 -101 191 -101 209 0 7 -11 23 -25 36 -30 31 -77 33 -124 4
l-34 -20 6 -107 c3 -59 15 -145 25 -192 30 -126 36 -225 21 -325 -12 -80 -11
-90 6 -122 20 -36 78 -73 116 -73 11 0 36 15 55 34 33 33 34 37 34 108 0 41 3
78 7 81 3 4 19 -23 34 -60 45 -105 107 -154 178 -138 49 11 65 37 61 103 -4
56 -3 124 2 287 1 44 -1 188 -3 320 -5 198 -9 246 -22 272 -31 58 -100 78
-163 47z"/>
<path d="M2968 2529 c-19 -7 -36 -28 -55 -67 -26 -53 -28 -65 -28 -182 0 -109
4 -137 29 -220 36 -121 68 -183 106 -210 47 -33 88 -42 147 -29 44 8 60 18 96
59 64 71 81 112 79 193 -2 115 -38 194 -103 227 -136 70 -249 -80 -146 -196
24 -28 36 -34 61 -32 29 3 31 6 31 41 0 42 5 45 28 19 34 -37 14 -85 -41 -99
-51 -13 -121 55 -144 140 -12 47 -12 51 20 107 40 73 44 153 11 206 -17 29
-49 56 -61 53 -2 0 -15 -5 -30 -10z"/>
<path d="M760 2509 c-90 -36 -106 -99 -115 -479 -8 -317 15 -437 97 -505 28
-24 37 -26 91 -21 95 8 176 73 215 171 39 99 51 242 32 370 -37 236 -74 355
-130 414 -48 50 -133 72 -190 50z m141 -352 c21 -124 -2 -277 -42 -277 -62 0
-75 255 -18 350 20 32 22 33 34 16 8 -10 19 -50 26 -89z"/>
<path d="M2150 2409 c-34 -22 -87 -63 -116 -91 -43 -41 -54 -57 -54 -82 0 -18
5 -37 12 -44 15 -15 51 -15 66 0 19 19 27 1 46 -102 10 -52 26 -113 35 -135
18 -45 21 -214 7 -370 -8 -85 -7 -91 13 -109 32 -29 105 -25 178 8 73 34 103
62 103 96 0 26 -26 60 -47 60 -39 0 -64 102 -56 225 4 67 0 94 -22 165 -36
117 -41 191 -20 263 19 66 9 116 -28 142 -32 22 -48 19 -117 -26z"/>
<path d="M1118 2361 c-18 -15 -30 -37 -37 -72 -17 -76 -19 -70 60 -163 53 -63
54 -68 55 -283 l0 -202 28 -41 c46 -70 144 -101 182 -59 17 18 19 37 19 148 0
69 -2 162 -5 206 l-5 80 60 5 c66 5 115 30 115 58 0 27 -34 76 -76 111 -221
179 -282 221 -331 228 -29 4 -44 0 -65 -16z"/>
<path d="M1903 2150 c-34 -14 -44 -43 -53 -167 -7 -93 -13 -120 -28 -135 -19
-19 -19 -17 -25 89 -4 59 -10 120 -13 135 -9 38 -48 78 -77 78 -43 0 -57 -30
-78 -167 -11 -70 -31 -184 -44 -253 -14 -69 -25 -142 -25 -163 0 -48 21 -89
54 -106 37 -20 102 -17 128 5 25 23 55 91 72 163 21 92 35 75 33 -38 -2 -111
7 -131 66 -145 36 -8 80 33 96 90 6 21 14 159 18 305 l6 267 -26 26 c-27 27
-63 32 -104 16z"/>
<path d="M2920 1588 c-23 -25 -22 -19 -50 -183 -29 -172 -54 -245 -81 -245
-17 0 -31 53 -39 147 -9 106 -28 141 -90 173 -53 27 -76 25 -111 -9 -28 -28
-29 -33 -29 -123 0 -51 7 -165 15 -253 18 -198 19 -324 3 -483 -10 -106 -10
-127 3 -150 20 -36 66 -48 125 -32 59 17 99 50 129 111 37 72 46 131 46 282
-1 138 -1 138 21 135 22 -3 23 -7 28 -146 5 -136 6 -145 29 -163 35 -28 82
-24 127 12 85 67 115 172 96 333 -7 52 -12 158 -12 235 0 205 -22 285 -95 349
-43 39 -85 42 -115 10z"/>
<path d="M1050 1454 c-36 -31 -68 -90 -103 -194 -31 -93 -78 -190 -92 -190 -5
1 -42 43 -82 94 -68 88 -173 191 -218 213 -61 31 -116 21 -160 -27 -18 -20
-20 -36 -20 -144 1 -84 6 -141 19 -186 17 -64 120 -294 214 -480 54 -108 82
-130 165 -130 67 0 97 30 97 99 0 41 -11 71 -64 177 -36 71 -63 130 -61 133 2
2 27 -17 56 -43 28 -25 59 -46 68 -46 21 0 63 43 85 87 35 70 39 54 32 -128
-6 -159 -5 -180 14 -249 23 -82 55 -132 100 -155 35 -18 120 -20 144 -2 42 31
39 126 -11 387 -30 159 -28 205 16 398 36 156 39 221 11 296 -41 109 -137 150
-210 90z"/>
<path d="M2185 1298 c-75 -26 -188 -140 -228 -228 -17 -37 -22 -77 -29 -225
-11 -258 -1 -323 78 -476 75 -145 148 -209 240 -209 74 1 173 59 204 120 42
82 17 133 -72 145 -123 15 -147 40 -188 195 -37 142 -20 267 48 346 23 27 81
38 133 24 31 -9 49 -8 71 1 53 22 62 72 28 162 -45 120 -172 185 -285 145z"/>
<path d="M1415 1102 c-49 -10 -94 -85 -95 -159 0 -26 3 -160 8 -298 9 -241 11
-254 41 -346 33 -104 91 -195 153 -242 39 -30 120 -51 165 -42 76 14 184 203
219 384 16 86 10 155 -31 346 -50 232 -93 324 -160 341 -33 8 -81 -20 -111
-66 -24 -36 -26 -46 -20 -103 3 -34 24 -125 46 -201 58 -202 53 -286 -18 -286
-52 0 -75 110 -71 345 3 242 1 270 -18 294 -19 23 -74 40 -108 33z"/>
</g>
</svg>
